<svg xmlns="http://www.w3.org/2000/svg" viewBox="0 0 444.78 444.78"><defs><style>.cls-1{fill:#fff;}.cls-2{fill:#e57d30;}</style></defs><g id="Layer_2" data-name="Layer 2"><g id="Layer_1-2" data-name="Layer 1"><rect class="cls-1" width="444.78" height="444.78" rx="56.57"/><path class="cls-2" d="M362.59,95.23v9.44a.82.82,0,0,1-.85.84h-9.49a.8.8,0,0,1-.77-.84V95.23a.79.79,0,0,1,.77-.83h9.49A.81.81,0,0,1,362.59,95.23Z"/><path class="cls-2" d="M293.18,139V110.45a1.53,1.53,0,0,1,1.53-1.52h28.57a1.55,1.55,0,0,1,1.53,1.52V139a1.52,1.52,0,0,1-1.53,1.45H294.71A1.5,1.5,0,0,1,293.18,139Z"/><path class="cls-2" d="M312.86,174.16h12.08v32.61a13.14,13.14,0,0,1-13.06,13.16H229.27a9,9,0,0,0-8.53,9v48a15.62,15.62,0,0,1-15.63,15.62H153.29a9,9,0,0,0-9,9v33.25a15.6,15.6,0,0,1-15.61,15.63H97.8a15.62,15.62,0,0,1-15.62-15.63V303.89A15.62,15.62,0,0,1,97.8,288.26h33.26a9,9,0,0,0,9-9V227.36a15.61,15.61,0,0,1,15.63-15.63h47.86a9,9,0,0,0,8.89-7.63V120.57a13.15,13.15,0,0,1,13.16-13.14h60.5v35.71a4.41,4.41,0,0,0,4.34,4.48h18.7v22.81A3.73,3.73,0,0,0,312.86,174.16Z"/><path class="cls-2" d="M357,115.63V134a1.54,1.54,0,0,1-1.53,1.52H337.12A1.52,1.52,0,0,1,335.6,134V115.63a1.52,1.52,0,0,1,1.52-1.53h18.39A1.54,1.54,0,0,1,357,115.63Z"/><path class="cls-2" d="M335.6,149.15v18.41a1.39,1.39,0,0,1-1.45,1.42H315.76a1.45,1.45,0,0,1-1.53-1.42V149.15a1.54,1.54,0,0,1,1.53-1.53h18.39A1.48,1.48,0,0,1,335.6,149.15Z"/></g></g></svg>