<?xml version="1.0" encoding="UTF-8"?>
<svg id="Layer_1" data-name="Layer 1" xmlns="http://www.w3.org/2000/svg" viewBox="0 0 1920 1080">
  <defs>
    <style>
      .cls-1 {
        fill: #fff;
      }

      .cls-2 {
        fill: #1b395d;
      }

      .cls-3 {
        fill: #e57d30;
      }
    </style>
  </defs>
  <rect class="cls-2" width="1920" height="1080"/>
  <g>
    <g>
      <path class="cls-1" d="M704.54,559.02c0-26.99,14.71-53.07,53.68-53.07,36.09,0,50.34,14.4,52.47,43.37h-27.45c-1.21-13.64-6.98-21.53-24.57-21.53s-26.23,10.46-26.23,31.24,7.28,31.09,25.47,31.09,24.57-7.58,25.63-22.29h27.75c-2.43,30.93-16.23,43.97-53.22,43.97-38.97,0-53.53-25.02-53.53-52.77Z"/>
      <path class="cls-1" d="M902.69,508.53h-12.1l-20.78,63.54c-1.68,5.3-3.2,10.6-4.54,15.91-1.37-5.3-2.89-10.61-4.57-15.91l-20.6-63.54h-27.61l32.76,100.84h39.4l27.7-85.24c-4.36-4.33-7.71-9.66-9.66-15.6Z"/>
      <path class="cls-1" d="M940.48,535.77c-4.57,0-8.96-.76-13.04-2.19v75.79h26.09v-75.79c-4.08,1.43-8.47,2.19-13.04,2.19Z"/>
      <path class="cls-1" d="M1050.56,563.26v46.1h-26.08v-41.7c0-10.01-4.09-15.47-13.19-15.47-10.46,0-16.53,6.67-16.53,21.53v35.63h-26.08v-75.82h26.08v13.95c5-9.86,13.8-16.38,27.29-16.38,19.86,0,28.51,12.28,28.51,32.15Z"/>
      <circle class="cls-3" cx="940.48" cy="495.95" r="27.73"/>
    </g>
    <g>
      <path class="cls-3" d="M1215.46,477.91v4.89c0,.25-.19.44-.44.44h-4.92c-.22,0-.4-.19-.4-.44v-4.89c0-.25.18-.43.4-.43h4.92c.25,0,.44.18.44.43Z"/>
      <path class="cls-3" d="M1179.49,500.61v-14.81c0-.43.35-.79.79-.79h14.81c.43,0,.79.36.79.79v14.81c0,.4-.36.75-.79.75h-14.81c-.44,0-.79-.35-.79-.75Z"/>
      <path class="cls-3" d="M1189.69,518.81h6.26v16.9c0,3.74-3.03,6.82-6.77,6.82h-42.81c-2.46.12-4.42,2.17-4.42,4.66v24.85c0,4.47-3.62,8.09-8.1,8.09h-26.85c-2.57,0-4.67,2.1-4.67,4.67v17.23c0,4.48-3.61,8.1-8.09,8.1h-16c-4.47,0-8.09-3.62-8.09-8.1v-15.99c0-4.48,3.62-8.1,8.09-8.1h17.24c2.57,0,4.66-2.09,4.66-4.66v-26.9c0-4.48,3.62-8.1,8.1-8.1h24.8c2.33,0,4.27-1.71,4.61-3.95v-43.29c0-3.78,3.08-6.81,6.82-6.81h31.35v18.51c0,1.26.99,2.32,2.25,2.32h9.69v11.82c0,1.07.87,1.93,1.93,1.93Z"/>
      <path class="cls-3" d="M1212.58,488.48v9.53c0,.43-.36.79-.79.79h-9.53c-.44,0-.79-.36-.79-.79v-9.53c0-.44.35-.79.79-.79h9.53c.43,0,.79.35.79.79Z"/>
      <path class="cls-3" d="M1201.47,505.85v9.54c0,.43-.32.74-.75.74h-9.53c-.44,0-.79-.31-.79-.74v-9.54c0-.43.35-.79.79-.79h9.53c.43,0,.75.36.75.79Z"/>
    </g>
  </g>
</svg>